# xmcd CD database file
# Copyright (C) 1993-1998 Ti Kan
# 
# Track frame offsets:
#     150
#     10732
#     28600
#     38635
#     80452
#     105200
#     121687
#     137500
#     156850
#     170487
# 
# Disc length: 2534 seconds
# 
# Revision: 1
# Processed by: cddbd v1.4b41PL1 Copyright (c) Steve Scherf et al.
# Submitted via: DiscPlay 4.0.4
# 
DISCID=6609e40a
DTITLE=Night Stalkers - Movin' Through The Shadows
DYEAR=1900
DGENRE=
TTITLE0=I Need A Woman
TTITLE1=Walk That Walk
TTITLE2=Freeze Me Over
TTITLE3=Doin' Time
TTITLE4=Call Me Ed
TTITLE5=Between The Sheets
TTITLE6=Walkaway
TTITLE7=When He Says Jump
TTITLE8=Movin Through The Shadows
TTITLE9=Harlem Nocturne
EXTD=
EXTT0=
EXTT1=
EXTT2=
EXTT3=
EXTT4=
EXTT5=
EXTT6=
EXTT7=
EXTT8=
EXTT9=
PLAYORDER=
